<svg xmlns="http://www.w3.org/2000/svg" viewBox="0 0 737.73 210.88"><g fill="#fff"><path fill="none" d="M0 0h737.73v210.88H0z"/><path d="M657.89 82.22h22.88v80.42h-22.88z"/><circle cx="669.33" cy="54.85" r="13.45"/><path d="M351.33 82.22h22.88v80.42h-22.88z"/><circle cx="362.77" cy="54.85" r="13.45"/><path d="M532.81 82.22h22.88v80.42h-22.88z"/><circle cx="544.25" cy="54.85" r="13.45"/><path class="cls-2" d="M650.09 162.63l-32.62-44.17 28.97-36.24h-25.73l-27.64 36.52V43.69H570.2l-.01 118.94h22.88v-13.67h.01l11.46-14.34 19.07 28.01h26.48zM50.47 82.22h15.21v-4.5c0-25.28 18.84-36.26 35.12-36.26a52.7 52.7 0 0121.49 5.1L118.1 56l-4.2 9.43a20.76 20.76 0 00-10.9-3.19c-4.87 0-14.48 4.12-14.48 16.6v3.38h21.64v20.52H88.55v59.9H65.68v-59.9H50.47zM308 80.73c-13.46 0-21.84 6.53-26.59 16.6-4.65-11.4-14.09-16.6-25.7-16.6-11.27 0-19 4.57-24 12l-.55-10.43h-21.79v80.38h22.87v-38.2c0-11.7 3.92-23.06 15.8-23.06s13.61 13.78 13.62 18.21v43h22.88v-38.2c0-11.7 3.92-23.06 15.79-23.06s13.61 13.78 13.63 18.21v43h22.87v-46.76c0-24.4-12.19-35.09-28.83-35.09zm190.49 1.49l-19.25 53.43-19.26-53.43H437.3l5.02 12.53-14.74 40.9-19.24-53.43h-22.88l28.96 80.41h22.88l16.27-39.8 15.95 39.8h22.88l28.96-80.41h-22.87zm-300.37 40.25c0-20.73-12.88-43-40.46-43s-41.09 22.46-41.09 43.05c0 20.22 13.13 43 44 43 16.93 0 27.48-7 33.44-14.9l-11.21-14.11c-3.68 4.78-12.44 9.37-19.28 9.37-12.64 0-22.88-7.15-22.88-16v-.21l57.4.06s.08-4.99.08-7.26zm-57.46-8.53c.27-8.28 7.76-14.92 17-14.92s16.73 6.64 17 14.92z"/></g></svg>