<?xml version="1.0" encoding="UTF-8" standalone="no"?>
<svg
   xmlns:dc="http://purl.org/dc/elements/1.1/"
   xmlns:cc="http://creativecommons.org/ns#"
   xmlns:rdf="http://www.w3.org/1999/02/22-rdf-syntax-ns#"
   xmlns:svg="http://www.w3.org/2000/svg"
   xmlns="http://www.w3.org/2000/svg"
   viewBox="0 0 965.30798 267.67468"
   height="267.67468"
   width="965.30798"
   xml:space="preserve"
   id="svg128"
   version="1.1"><metadata
     id="metadata134"><rdf:RDF><cc:Work
         rdf:about=""><dc:format>image/svg+xml</dc:format><dc:type
           rdf:resource="http://purl.org/dc/dcmitype/StillImage" /><dc:title></dc:title></cc:Work></rdf:RDF></metadata><defs
     id="defs132"><clipPath
       id="clipPath144"
       clipPathUnits="userSpaceOnUse"><path
         id="path142"
         d="M 0,200.756 H 723.981 V 0 H 0 Z" /></clipPath></defs><g
     transform="matrix(1.3333333,0,0,-1.3333333,0,267.67467)"
     id="g136"><g
       id="g138"><g
         clip-path="url(#clipPath144)"
         id="g140"><g
           transform="translate(129.1308,136.8208)"
           id="g146"><path
             id="path148"
             style="fill:#b9b6e9;fill-opacity:1;fill-rule:nonzero;stroke:none"
             d="M 0,0 C 15.261,0.576 30.392,0.604 45.656,0.135 V 25.089 C 30.392,25.558 15.261,25.53 0,24.954 v 13.647 c 17.347,0.671 34.543,0.584 51.883,-0.163 v 24.954 c -26.52,1.111 -52.496,0.568 -78.912,-2.09 V -41.545 c 26.65,2.679 52.849,3.205 79.603,2.054 v 24.954 C 35.003,-13.761 17.58,-13.66 0,-14.338 Z" /></g><g
           transform="translate(259.4746,153.1118)"
           id="g150"><path
             id="path152"
             style="fill:#b9b6e9;fill-opacity:1;fill-rule:nonzero;stroke:none"
             d="M 0,0 C -7.883,13.964 -15.816,27.901 -23.789,41.814 -34.844,43.31 -40.37,43.97 -51.424,45.047 V -57.799 c 10.812,-1.054 16.217,-1.697 27.029,-3.151 v 55.804 c 7.485,-12.396 14.938,-24.812 22.363,-37.245 1.514,-0.242 2.272,-0.364 3.787,-0.612 7.509,10.169 15.057,20.309 22.637,30.424 v -56.219 c 10.813,-1.982 16.219,-3.035 27.032,-5.201 V 28.847 C 42.23,30.699 33.016,32.478 23.789,34.159 15.821,22.799 7.9,11.407 0,0" /></g><g
           transform="translate(341.2148,72.855)"
           id="g154"><path
             id="path156"
             style="fill:#b9b6e9;fill-opacity:1;fill-rule:nonzero;stroke:none"
             d="M 0,0 C 10.922,-2.304 16.383,-3.479 27.305,-5.803 V 97.042 C 16.383,99.367 10.922,100.541 0,102.845 Z" /></g><g
           transform="translate(525.7978,40.6846)"
           id="g158"><path
             id="path160"
             style="fill:#b9b6e9;fill-opacity:1;fill-rule:nonzero;stroke:none"
             d="M 0,0 C 10.923,-0.898 16.384,-1.234 27.307,-1.615 V 101.233 C 16.384,101.614 10.923,101.951 0,102.848 Z" /></g><g
           transform="translate(679.708,155.7422)"
           id="g162"><path
             id="path164"
             style="fill:#b9b6e9;fill-opacity:1;fill-rule:nonzero;stroke:none"
             d="m 0,0 c -11.36,-2.967 -22.558,-5.526 -34.08,-7.785 -11.463,-14.286 -23.113,-28.393 -34.984,-42.344 10e-4,12.564 10e-4,25.128 10e-4,37.693 -10.922,-0.967 -16.383,-1.263 -27.306,-1.546 v -102.849 c 10.923,0.284 16.384,0.58 27.306,1.547 0,10.466 0,20.931 -10e-4,31.397 3.155,3.55 4.731,5.341 7.885,8.952 9.481,-11.902 19.075,-23.695 28.819,-35.384 11.175,2.239 22.049,4.763 33.071,7.671 -14.812,16.043 -29.184,32.414 -43.263,49.101 C -28.012,-35.967 -13.849,-18.131 0,0" /></g><g
           transform="translate(696.6748,160.936)"
           id="g166"><path
             id="path168"
             style="fill:#b9b6e9;fill-opacity:1;fill-rule:nonzero;stroke:none"
             d="m 0,0 c -0.001,-34.282 -0.001,-68.564 0,-102.847 9.213,3.028 18.403,6.513 27.307,10.353 -10e-4,34.283 -10e-4,68.565 0,102.847 C 18.403,6.513 9.213,3.027 0,0" /></g><g
           transform="translate(447.4746,89.5117)"
           id="g170"><path
             id="path172"
             style="fill:#b9b6e9;fill-opacity:1;fill-rule:nonzero;stroke:none"
             d="m 0,0 c 7.895,-14.097 15.816,-28.179 23.789,-42.232 11.054,-1.712 16.58,-2.493 27.635,-3.838 V 56.777 C 40.611,58.092 35.206,58.854 24.395,60.52 V 4.716 C 16.914,17.248 9.461,29.796 2.032,42.358 0.517,42.624 -0.24,42.759 -1.755,43.03 -9.271,32.967 -16.818,22.929 -24.393,12.91 v 56.219 c -10.812,2.107 -16.218,3.21 -27.031,5.453 V -28.263 c 9.198,-1.916 18.41,-3.781 27.635,-5.57 C -15.828,-22.578 -7.897,-11.301 0,0" /></g><g
           transform="translate(27.3066,156.4121)"
           id="g174"><path
             id="path176"
             style="fill:#b9b6e9;fill-opacity:1;fill-rule:nonzero;stroke:none"
             d="M 0,0 C 17.322,5.453 34.606,9.809 52.434,13.225 V 38.456 C 24.88,33.185 -1.316,25.441 -27.307,14.877 v -171.289 c 0,0 5.561,3.136 14.07,7.124 8.51,3.987 13.237,5.672 13.237,5.672 v 65.493 c 15.121,4.976 30.559,9.131 46.209,12.079 v 25.232 C 30.559,-43.76 15.121,-47.915 0,-52.891 Z" /></g></g></g></g></svg>
