<svg xmlns="http://www.w3.org/2000/svg" height="356.9" width="1143.519"><path d="M261.278 144.732c20.35-.77 40.524-.807 60.876-.182v-33.27c-20.352-.626-40.527-.587-60.875.18V93.263c23.13-.894 46.057-.78 69.177.217V60.208c-35.36-1.48-69.994-.757-105.215 2.787v137.129c35.533-3.572 70.465-4.274 106.137-2.739v-33.272c-23.428-1.035-46.659-1.17-70.099-.265zm173.793-21.723a9943.304 9943.304 0 00-31.72-55.752c-14.739-1.994-22.107-2.874-36.845-4.31v137.127c14.416 1.406 21.622 2.263 36.038 4.202V129.87a11900.153 11900.153 0 0129.817 49.66c2.02.323 3.03.486 5.05.816a7165.43 7165.43 0 0130.182-40.565v74.96c14.418 2.641 21.626 4.045 36.043 6.933V84.547a2020.998 2020.998 0 00-36.847-7.083 9316.466 9316.466 0 00-31.72 45.547m108.988 107.007c14.563 3.072 21.844 4.639 36.407 7.738V100.629c-14.563-3.1-21.844-4.665-36.407-7.737zm246.11 42.893c14.564 1.198 21.846 1.646 36.41 2.154v-137.13c-14.564-.507-21.846-.958-36.41-2.154zM995.38 119.503a747.993 747.993 0 01-45.44 10.38 2540.044 2540.044 0 01-46.645 56.458l.001-50.257c-14.562 1.29-21.844 1.684-36.408 2.061v137.132c14.564-.379 21.846-.774 36.408-2.063l-.001-41.862c4.207-4.734 6.308-7.122 10.513-11.936a2734.984 2734.984 0 0038.426 47.178 746.58 746.58 0 0044.094-10.228c-19.75-21.39-38.912-43.218-57.684-65.468a2352.694 2352.694 0 0056.736-71.395m22.623-6.926v137.13a436.502 436.502 0 0036.409-13.805V98.773a436.032 436.032 0 01-36.41 13.804M685.738 207.81a11659.982 11659.982 0 0031.718 56.31c14.74 2.282 22.107 3.323 36.847 5.116v-137.13c-14.417-1.753-21.624-2.769-36.04-4.99v74.405a14193.435 14193.435 0 01-29.816-50.19c-2.02-.354-3.03-.533-5.05-.895a8573.053 8573.053 0 01-30.183 40.16v-74.959c-14.416-2.81-21.624-4.28-36.041-7.27v137.126a2720.546 2720.546 0 0036.846 7.427 9646.516 9646.516 0 0031.719-45.111m-560.223-89.2a619.733 619.733 0 0169.912-17.633V67.335c-36.739 7.026-71.668 17.353-106.321 31.437v228.386s7.413-4.181 18.76-9.499c11.347-5.316 17.65-7.562 17.65-7.562v-87.325c20.16-6.635 40.744-12.175 61.611-16.107v-33.64c-20.867 3.93-41.45 9.47-61.613 16.105z" fill="#fffffe"/></svg>