<?xml version="1.0" encoding="UTF-8" standalone="no"?>
<svg
   xmlns:dc="http://purl.org/dc/elements/1.1/"
   xmlns:cc="http://creativecommons.org/ns#"
   xmlns:rdf="http://www.w3.org/1999/02/22-rdf-syntax-ns#"
   xmlns:svg="http://www.w3.org/2000/svg"
   xmlns="http://www.w3.org/2000/svg"
   xmlns:sodipodi="http://sodipodi.sourceforge.net/DTD/sodipodi-0.dtd"
   xmlns:inkscape="http://www.inkscape.org/namespaces/inkscape"
   inkscape:version="1.0 (6e3e5246a0, 2020-05-07)"
   inkscape:export-ydpi="25.031946"
   inkscape:export-xdpi="25.031946"
   inkscape:export-filename="/home/nemo/Downloads/logo-135x114.png"
   sodipodi:docname="logo.svg"
   viewBox="0 0 519.90802 437.20132"
   height="437.20132"
   width="519.90802"
   xml:space="preserve"
   id="svg2"
   version="1.1"><metadata
     id="metadata8"><rdf:RDF><cc:Work
         rdf:about=""><dc:format>image/svg+xml</dc:format><dc:type
           rdf:resource="http://purl.org/dc/dcmitype/StillImage" /><dc:title></dc:title></cc:Work></rdf:RDF></metadata><defs
     id="defs6"><clipPath
       id="clipPath18"
       clipPathUnits="userSpaceOnUse"><path
         id="path16"
         d="M 0,327.901 H 389.931 V 0 H 0 Z" /></clipPath></defs><sodipodi:namedview
     inkscape:current-layer="g10"
     inkscape:window-maximized="1"
     inkscape:window-y="27"
     inkscape:window-x="0"
     inkscape:cy="235.36789"
     inkscape:cx="245.20401"
     inkscape:zoom="1.4070929"
     showgrid="false"
     id="namedview4"
     inkscape:window-height="1016"
     inkscape:window-width="1920"
     inkscape:pageshadow="2"
     inkscape:pageopacity="0"
     guidetolerance="10"
     gridtolerance="10"
     objecttolerance="10"
     borderopacity="1"
     bordercolor="#666666"
     pagecolor="#ffffff" /><g
     transform="matrix(1.3333333,0,0,-1.3333333,0,437.20133)"
     inkscape:label="femiwiki_logo"
     inkscape:groupmode="layer"
     id="g10"><g
       id="g12"><g
         clip-path="url(#clipPath18)"
         id="g14"><path
           id="path20"
           style="fill:#b9b6e9;fill-opacity:1;fill-rule:nonzero;stroke:none"
           d="m 0,0 c 0,0 16.712,6.542 27.307,7.631 0,77.058 0.001,138.596 0,215.655 30.355,8.085 59.007,8.95 90.21,5.447 v 25.77 c -31.204,3.503 -59.855,2.638 -90.21,-5.447 v 43.215 c 31.087,11.071 62.002,11.561 94.433,7.432 v 25.77 C 78.281,330.953 39.816,327.775 0,309.577 Z" /><g
           transform="translate(174.1309,254.6382)"
           id="g22"><path
             id="path24"
             style="fill:#b9b6e9;fill-opacity:1;fill-rule:nonzero;stroke:none"
             d="M 0,0 C 9.232,-2.257 18.444,-4.596 27.656,-6.927 V 16.688 C 18.444,19.02 9.232,21.358 0,23.615 V 36.53 c 10.636,-2.636 21.259,-5.312 31.883,-7.989 v 23.616 c -19.572,4.93 -39.115,10.07 -58.912,14.151 0,-32.444 0.001,-64.887 0.001,-97.33 19.993,-4.333 39.782,-9.333 59.602,-14.324 V -21.73 C 21.719,-18.997 10.866,-16.262 0,-13.568 Z" /></g><g
           transform="translate(283.4746,255.6015)"
           id="g26"><path
             id="path28"
             style="fill:#b9b6e9;fill-opacity:1;fill-rule:nonzero;stroke:none"
             d="m 0,0 c -8.077,13.059 -15.977,26.217 -23.789,39.42 -9.254,1.548 -18.503,3.428 -27.635,5.522 0,-32.443 0,-64.886 -10e-4,-97.329 10.812,-2.436 16.218,-3.572 27.029,-5.419 0,17.604 0,35.207 0.001,52.811 7.373,-11.791 14.82,-23.534 22.364,-35.228 1.513,-0.156 2.271,-0.231 3.787,-0.367 7.713,10.382 15.264,20.873 22.637,31.474 V -62.32 c 10.812,0.017 16.218,0.328 27.03,1.818 10e-4,32.443 10e-4,64.886 10e-4,97.329 C 40.37,35.303 34.844,34.996 23.789,35.01 15.99,23.255 8.065,11.593 0,0" /></g><g
           transform="translate(362.624,201.2099)"
           id="g30"><path
             id="path32"
             style="fill:#b9b6e9;fill-opacity:1;fill-rule:nonzero;stroke:none"
             d="m 0,0 c 9.292,2.774 18.763,6.617 27.307,11.038 v 97.329 C 18.763,103.945 9.292,100.103 0.001,97.329 0.001,64.886 0,32.443 0,0" /></g><g
           transform="translate(194.7471,84.5532)"
           id="g34"><path
             id="path36"
             style="fill:#b9b6e9;fill-opacity:1;fill-rule:nonzero;stroke:none"
             d="M 0,0 C 9.085,-2.312 18.183,-4.596 27.306,-6.769 V 90.559 C 18.183,92.733 9.085,95.017 0,97.329 0.001,64.886 0,32.443 0,0" /></g><g
           transform="translate(347.0567,166.7788)"
           id="g38"><path
             id="path40"
             style="fill:#b9b6e9;fill-opacity:1;fill-rule:nonzero;stroke:none"
             d="M 0,0 C -11.589,-2.012 -22.318,-3.217 -34.079,-3.851 -45.411,-15.49 -56.988,-26.846 -69.062,-37.802 v 35.671 c -10.922,1.258 -16.385,2.161 -27.307,4.245 v -97.328 c 10.923,-2.084 16.385,-2.987 27.307,-4.246 v 29.712 c 3.154,2.732 4.731,4.119 7.884,6.937 9.346,-12.943 18.885,-25.772 28.819,-38.318 11.402,0.701 21.839,1.942 33.07,3.95 -15.194,16.573 -29.449,33.703 -43.262,51.318 C -27.654,-31.108 -13.554,-15.876 0,0" /></g><g
           transform="translate(362.6231,170.7866)"
           id="g42"><path
             id="path44"
             style="fill:#b9b6e9;fill-opacity:1;fill-rule:nonzero;stroke:none"
             d="m 0,0 v -97.329 c 9.291,2.775 18.764,6.617 27.308,11.039 V 11.039 C 18.764,6.617 9.291,2.774 0,0" /></g><g
           transform="translate(113.4258,137.7163)"
           id="g46"><path
             id="path48"
             style="fill:#b9b6e9;fill-opacity:1;fill-rule:nonzero;stroke:none"
             d="m 0,0 c 8.047,-13.238 15.978,-26.54 23.788,-39.904 9.255,-1.708 18.491,-3.707 27.635,-5.885 v 97.33 C 40.611,54.077 35.205,55.284 24.394,57.313 V 4.501 C 17.014,16.436 9.566,28.328 2.031,40.175 0.517,40.367 -0.24,40.459 -1.756,40.631 -9.458,30.45 -17.01,20.166 -24.393,9.774 v 53.204 c -10.812,0.312 -16.218,0.186 -27.032,-0.894 10e-4,-32.443 10e-4,-64.887 0,-97.329 11.054,1.104 16.581,1.223 27.636,0.875 C -15.982,-22.832 -8.057,-11.382 0,0" /></g></g></g></g></svg>
