<svg xmlns="http://www.w3.org/2000/svg" viewBox="0 0 209.99 209.99"><path fill="#fff" d="M154.42 69.88l3.4-12.7a3.94 3.94 0 00-3.81-5H78.08l.12-.44a5.91 5.91 0 00-11.42-3.05L36.7 161a5.92 5.92 0 004.18 7.24 6.24 6.24 0 001.53.2 5.92 5.92 0 005.71-4.38l10.39-38.81h41.86l-.48 1.75a11.82 11.82 0 0011.41 14.88h40.3a4.93 4.93 0 004.76-3.65l17-63.42a3.93 3.93 0 00-3.8-5zm-41.63 58.73l11.21-9.76a2 2 0 00-1.29-3.46H61.15l14.29-53.32h70.8l-4.71 17.58 19.4.08-12.67 52.33h-34.18a2 2 0 01-1.29-3.45z"/></svg>